<?xml version="1.0" encoding="utf-8"?>
<!-- Svg Vector Icons : http://www.onlinewebfonts.com/icon -->
<!DOCTYPE svg PUBLIC "-//W3C//DTD SVG 1.1//EN" "http://www.w3.org/Graphics/SVG/1.1/DTD/svg11.dtd">
<svg version="1.1" xmlns="http://www.w3.org/2000/svg" xmlns:xlink="http://www.w3.org/1999/xlink" x="0px" y="0px" viewBox="0 0 1000 1000" enable-background="new 0 0 1000 1000" xml:space="preserve">
<metadata> Svg Vector Icons : http://www.onlinewebfonts.com/icon </metadata>
<g><path d="M692.5,356.1l-248,253.5L307.3,472.4c-12-12-31.3-12-43.3,0c-12,12-12,31.4,0,43.3l159.1,159.1c5.7,5.7,13.5,9,21.7,9c0.1,0,0.1,0,0.2,0c8.2,0,16-3.4,21.7-9.2l269.6-275.6c11.8-12.1,11.6-31.5-0.5-43.3C723.7,343.8,704.3,344,692.5,356.1z"/><path d="M500,10C229.8,10,10,229.8,10,500c0,270.2,219.8,490,490,490s490-219.8,490-490C990,229.8,770.2,10,500,10z M500,928.8C263.6,928.8,71.2,736.4,71.2,500C71.2,263.6,263.6,71.3,500,71.3c236.4,0,428.8,192.3,428.8,428.7C928.8,736.4,736.4,928.8,500,928.8z"/></g>
</svg>