<?xml version="1.0" encoding="utf-8"?>
<!-- Svg Vector Icons : http://www.onlinewebfonts.com/icon -->
<!DOCTYPE svg PUBLIC "-//W3C//DTD SVG 1.1//EN" "http://www.w3.org/Graphics/SVG/1.1/DTD/svg11.dtd">
<svg version="1.1" xmlns="http://www.w3.org/2000/svg" xmlns:xlink="http://www.w3.org/1999/xlink" x="0px" y="0px" viewBox="0 0 1000 1000" enable-background="new 0 0 1000 1000" xml:space="preserve">
<metadata> Svg Vector Icons : http://www.onlinewebfonts.com/icon </metadata>
<g><path d="M734.1,265.9c-11.1-11.1-29.2-11.1-40.3,0L499.1,460.6L304.5,265.9c-11.1-11.1-29.2-11.1-40.3,0c-11.1,11.1-11.1,29.2,0,40.3L458.8,501L264.1,695.6c-11.1,11.1-11.1,29.2,0,40.3l0,0c11.1,11.1,29.2,11.1,40.3,0L499,541.3l194.7,194.7c11.1,11.1,29.2,11.1,40.3,0l0,0c11.1-11.1,11.1-29.2,0-40.3L539.3,501L734,306.3C745.2,295.2,745.2,277,734.1,265.9z"/><path d="M846.7,153.3c-191.1-191.1-502.2-191.1-693.3,0c-191.1,191.1-191.1,502.2,0,693.3c191.1,191.1,502.2,191.1,693.3,0C1037.8,655.5,1037.8,344.5,846.7,153.3z M810.3,810.3c-171.1,171.1-449.5,171-620.6,0c-171.1-171.1-171.1-449.4,0-620.6c171-171.1,449.4-171.1,620.6,0C981.4,360.7,981.4,639.3,810.3,810.3z"/></g>
</svg>